<svg width="42" height="40" viewBox="0 0 42 40" fill="none" xmlns="http://www.w3.org/2000/svg">
    <path d="M0 20.0715C0 31.1429 8.96949 40.1786 20.039 40.1786V33.6072C12.6 33.6072 6.54915 27.5357 6.54915 20.0715C6.54915 12.6072 12.6 6.53574 20.039 6.53574V3.05176e-05C9.00508 3.05176e-05 0 9.00003 0 20.0715ZM22.6373 18.6429L22.1746 20.1429C21.1068 23.5715 19.6475 23.5715 19.0424 23.5715C17.3339 23.5715 16.1593 22.3215 16.1593 20.5715H9.61017C9.61017 25.9286 13.739 30.1429 19.0424 30.1429C21.6051 30.1429 26.2322 29.1072 28.4034 22.1429L28.8661 20.6429C29.6491 18.1429 30.8593 16.8929 32.4254 16.8929C34.1695 16.8929 35.3085 18.3215 35.3085 20.5715H41.8576C41.8576 14.7143 37.8 10.3215 32.4254 10.3215C27.8695 10.2857 24.3102 13.3215 22.6373 18.6429Z" fill="#008E77"/>
</svg>
